<?xml version="1.0" standalone="no"?>
<!DOCTYPE svg PUBLIC "-//W3C//DTD SVG 20010904//EN"
 "http://www.w3.org/TR/2001/REC-SVG-20010904/DTD/svg10.dtd">
<svg version="1.0" xmlns="http://www.w3.org/2000/svg"
 width="310.000000pt" height="163.000000pt" viewBox="0 0 310.000000 163.000000"
 preserveAspectRatio="xMidYMid meet">
<metadata>
Created by potrace 1.16, written by Peter Selinger 2001-2019
</metadata>
<g transform="translate(0.000000,163.000000) scale(0.100000,-0.100000)"
fill="#000000" stroke="none">
<path d="M0 815 l0 -815 1550 0 1550 0 0 815 0 815 -1550 0 -1550 0 0 -815z
m1341 10 c11 -4 31 -4 45 -1 20 5 24 12 24 46 0 29 5 42 20 50 19 10 20 8 20
-45 0 -30 4 -55 9 -55 31 0 41 14 41 56 0 24 2 44 4 44 2 0 11 3 20 6 13 5 16
-3 16 -50 0 -39 4 -56 13 -56 23 0 37 23 37 61 0 24 5 39 15 43 21 8 29 -16
21 -64 l-6 -40 50 0 c38 0 50 -4 50 -15 0 -13 -27 -15 -177 -16 -212 -1 -234
0 -250 13 -9 7 -13 39 -13 94 0 69 3 85 18 93 15 9 17 2 20 -74 2 -74 5 -85
23 -90z m-293 93 c7 -7 12 -27 12 -45 0 -40 21 -53 89 -53 75 0 81 5 81 61 0
42 3 49 20 49 18 0 20 -7 20 -58 0 -32 -5 -63 -12 -70 -8 -8 -46 -12 -104 -12
-88 0 -94 1 -113 26 -14 18 -21 41 -21 70 0 45 7 53 28 32z m958 -11 c20 -18
28 -35 31 -73 l5 -49 -126 0 c-69 0 -126 1 -126 2 0 1 3 8 6 17 5 13 24 16
105 16 83 0 99 3 99 16 0 49 -54 77 -96 49 -22 -14 -25 -14 -31 1 -17 44 87
61 133 21z"/>
</g>
</svg>
