<?xml version="1.0" standalone="no"?>
<!DOCTYPE svg PUBLIC "-//W3C//DTD SVG 20010904//EN"
 "http://www.w3.org/TR/2001/REC-SVG-20010904/DTD/svg10.dtd">
<svg version="1.0" xmlns="http://www.w3.org/2000/svg"
 width="2048.000000pt" height="2048.000000pt" viewBox="0 0 2048.000000 2048.000000"
 preserveAspectRatio="xMidYMid meet">
<metadata>
Created by potrace 1.16, written by Peter Selinger 2001-2019
</metadata>
<g transform="translate(0.000000,2048.000000) scale(0.100000,-0.100000)"
fill="#000000" stroke="none">
<path d="M1980 20465 c-522 -68 -999 -310 -1360 -692 -316 -334 -514 -733
-597 -1203 -17 -101 -18 -383 -18 -8330 0 -7947 1 -8229 18 -8330 43 -240 107
-440 206 -640 123 -245 247 -418 440 -610 345 -344 758 -554 1249 -637 102
-17 457 -18 8322 -18 7933 0 8219 1 8325 18 303 51 561 145 815 299 600 361
993 964 1085 1662 22 166 22 16346 0 16512 -38 295 -125 562 -263 809 -362
652 -999 1079 -1737 1164 -141 17 -16359 13 -16485 -4z m2841 -2836 c633 -64
1180 -446 1454 -1014 212 -440 241 -936 83 -1394 -221 -641 -765 -1099 -1433
-1207 -144 -23 -400 -23 -547 0 -1153 181 -1840 1397 -1403 2486 109 272 289
523 508 706 381 320 861 472 1338 423z m9712 -4643 c631 -69 1160 -250 1607
-548 182 -121 283 -202 434 -348 582 -564 933 -1370 1036 -2385 28 -276 30
-573 30 -3667 l0 -3198 -1525 0 -1525 0 -3 2788 c-3 3000 -1 2834 -52 3126
-100 569 -333 987 -682 1224 -83 56 -230 128 -333 163 -417 139 -996 111
-1407 -70 -504 -221 -844 -694 -972 -1351 -59 -302 -55 -79 -58 -3107 l-3
-2773 -1470 0 -1470 0 0 4935 0 4935 1470 0 1470 0 0 -656 0 -656 58 88 c110
166 237 319 412 495 292 294 561 490 919 669 363 181 783 301 1191 339 63 6
133 13 155 15 87 9 588 -4 718 -18z m-8338 -5211 l0 -4930 -1530 0 -1530 0 -3
4920 c-1 2706 0 4926 3 4933 3 10 315 12 1532 10 l1528 -3 0 -4930z"/>
</g>
</svg>
