<?xml version="1.0" standalone="no"?>
<!DOCTYPE svg PUBLIC "-//W3C//DTD SVG 20010904//EN"
 "http://www.w3.org/TR/2001/REC-SVG-20010904/DTD/svg10.dtd">
<svg version="1.0" xmlns="http://www.w3.org/2000/svg"
 width="225.000000pt" height="225.000000pt" viewBox="0 0 225.000000 225.000000"
 preserveAspectRatio="xMidYMid meet">
<metadata>
Created by potrace 1.16, written by Peter Selinger 2001-2019
</metadata>
<g transform="translate(0.000000,225.000000) scale(0.100000,-0.100000)"
fill="#000000" stroke="none">
<path d="M0 1125 l0 -1125 1125 0 1125 0 0 1125 0 1125 -1125 0 -1125 0 0
-1125z m1335 550 c178 -71 313 -221 360 -401 19 -75 19 -223 0 -298 -47 -179
-180 -328 -360 -402 -66 -27 -79 -29 -210 -29 -131 0 -144 2 -210 29 -180 74
-313 223 -360 402 -19 74 -19 223 0 297 53 203 212 363 420 423 34 9 88 13
170 11 104 -3 129 -7 190 -32z"/>
<path d="M1034 1388 c-54 -18 -125 -80 -153 -133 -22 -42 -26 -63 -26 -130 0
-100 29 -162 100 -217 59 -45 117 -62 192 -56 99 7 184 65 228 153 28 56 28
184 0 240 -25 51 -80 105 -130 130 -46 22 -163 30 -211 13z"/>
</g>
</svg>
