<?xml version="1.0" standalone="no"?>
<!DOCTYPE svg PUBLIC "-//W3C//DTD SVG 20010904//EN"
 "http://www.w3.org/TR/2001/REC-SVG-20010904/DTD/svg10.dtd">
<svg version="1.0" xmlns="http://www.w3.org/2000/svg"
 width="1460.000000pt" height="730.000000pt" viewBox="0 0 1460.000000 730.000000"
 preserveAspectRatio="xMidYMid meet">
<metadata>
Created by potrace 1.16, written by Peter Selinger 2001-2019
</metadata>
<g transform="translate(0.000000,730.000000) scale(0.100000,-0.100000)"
fill="#000000" stroke="none">
<path d="M0 3650 l0 -3650 7300 0 7300 0 0 3650 0 3650 -7300 0 -7300 0 0
-3650z m5574 520 c35 -11 66 -26 68 -32 5 -13 -34 -183 -43 -192 -3 -4 -35 1
-69 10 -91 23 -249 16 -307 -14 -46 -24 -84 -68 -108 -125 -22 -53 -33 -188
-24 -285 20 -199 118 -287 298 -266 l61 7 0 108 0 108 -77 3 -78 3 0 100 0
100 198 3 197 2 0 -290 0 -291 -56 -25 c-85 -38 -169 -54 -279 -54 -270 0
-428 109 -491 340 -25 92 -26 367 -1 460 25 94 74 187 124 238 53 52 148 99
229 112 90 14 282 3 358 -20z m1414 -217 l2 -203 155 0 155 0 0 189 c0 104 3
196 6 205 5 13 25 16 120 16 l114 0 0 -550 0 -551 -117 3 -118 3 -3 233 -2
232 -155 0 -155 0 -2 -232 -3 -233 -117 -3 -118 -3 0 544 c0 299 3 547 7 551
4 3 57 5 117 4 l111 -3 3 -202z m1690 20 c1 -101 5 -183 8 -183 2 0 33 9 67
21 92 31 208 24 274 -17 99 -62 138 -175 130 -379 -8 -199 -50 -300 -143 -346
-92 -45 -255 -35 -352 22 l-33 19 -9 -26 c-10 -24 -12 -25 -92 -22 l-83 3 -3
535 c-1 294 0 541 3 548 3 9 33 12 117 10 l113 -3 3 -182z m-2680 137 c61 -37
79 -122 39 -181 -28 -42 -60 -59 -112 -59 -57 0 -99 29 -120 84 -17 44 -17 48
0 92 30 79 120 109 193 64z m482 -195 l0 -104 83 -3 82 -3 0 -95 0 -95 -82 -3
-83 -3 0 -164 c0 -207 -1 -206 130 -209 l35 -1 3 -86 c3 -101 7 -98 -108 -106
-137 -10 -237 37 -276 130 -15 34 -19 77 -22 240 l-4 197 -59 0 -60 0 3 82 3
82 58 14 57 14 0 109 0 109 120 0 120 0 0 -105z m-436 -121 c8 -20 8 -698 0
-718 -9 -24 -229 -24 -238 0 -3 9 -6 170 -6 359 0 189 3 350 6 359 5 13 25 16
119 16 94 0 114 -3 119 -16z m1838 -249 c3 -260 3 -265 26 -287 18 -19 33 -23
75 -22 29 1 67 9 85 18 l32 16 2 268 3 267 115 0 115 0 0 -370 0 -370 -78 -3
c-73 -3 -79 -1 -84 18 -4 14 -11 20 -22 16 -9 -3 -47 -17 -86 -30 -129 -47
-288 -30 -352 36 -65 67 -68 83 -71 396 -2 156 -1 290 2 298 4 11 31 14 120
14 l114 0 4 -265z"/>
<path d="M8760 3631 c-19 -4 -45 -13 -57 -20 -22 -11 -23 -16 -23 -181 l0
-168 38 -13 c20 -7 60 -13 89 -13 90 0 113 41 113 202 0 159 -47 216 -160 193z"/>
</g>
</svg>
