<?xml version="1.0" standalone="no"?>
<!DOCTYPE svg PUBLIC "-//W3C//DTD SVG 20010904//EN"
 "http://www.w3.org/TR/2001/REC-SVG-20010904/DTD/svg10.dtd">
<svg version="1.0" xmlns="http://www.w3.org/2000/svg"
 width="1920.000000pt" height="1080.000000pt" viewBox="0 0 1920.000000 1080.000000"
 preserveAspectRatio="xMidYMid meet">
<metadata>
Created by potrace 1.16, written by Peter Selinger 2001-2019
</metadata>
<g transform="translate(0.000000,1080.000000) scale(0.100000,-0.100000)"
fill="#000000" stroke="none">
<path d="M12550 5660 l0 -910 140 0 140 0 2 323 3 322 42 3 c40 3 43 1 69 -40
44 -70 153 -236 223 -341 77 -115 75 -112 131 -199 l42 -68 159 0 c88 0 159 3
159 7 0 3 -12 22 -27 42 -15 20 -59 83 -98 141 -92 136 -220 324 -290 425 -30
44 -55 85 -55 91 0 7 19 19 41 28 60 24 154 99 205 165 75 96 144 266 144 357
l0 44 -145 0 -145 0 0 -39 c0 -68 -36 -158 -86 -217 -26 -30 -51 -54 -56 -54
-6 0 -23 -10 -40 -21 -45 -32 -142 -59 -214 -59 l-64 0 0 455 0 455 -140 0
-140 0 0 -910z"/>
<path d="M7399 6061 c-163 -38 -316 -156 -400 -308 -24 -43 -48 -98 -55 -123
-6 -25 -17 -45 -24 -45 -13 0 -79 150 -105 240 -8 28 -26 89 -40 138 l-26 87
-254 0 -255 0 0 -378 c0 -411 -4 -446 -57 -544 -37 -69 -71 -101 -144 -139
-66 -34 -184 -33 -260 2 -99 47 -160 127 -193 255 -13 49 -16 130 -16 432 l-1
372 -145 0 -146 0 5 -387 c5 -443 10 -473 82 -618 41 -82 91 -146 167 -212 39
-34 186 -102 247 -113 69 -13 213 -13 270 1 99 22 262 116 300 173 8 11 22 28
31 36 36 33 100 168 120 255 19 77 23 130 27 372 5 264 12 325 29 235 4 -20
22 -74 41 -120 18 -46 33 -89 33 -97 0 -7 13 -37 28 -66 15 -30 34 -70 42 -89
14 -37 61 -120 118 -209 l34 -54 -25 -126 c-14 -69 -31 -164 -37 -211 -6 -47
-24 -152 -41 -233 -17 -82 -34 -183 -39 -226 -5 -43 -12 -89 -15 -104 l-7 -27
143 0 144 0 28 153 c15 83 32 188 38 232 16 126 41 259 49 268 8 9 46 -11 85
-43 43 -36 172 -95 257 -116 46 -12 93 -15 178 -12 105 4 123 8 210 43 52 21
115 52 139 69 53 37 159 143 172 171 5 11 22 40 37 65 15 25 39 81 52 125 21
68 25 100 25 210 -1 147 -16 218 -71 325 -90 174 -254 302 -441 344 -92 21
-237 19 -334 -3z m253 -245 c143 -31 229 -107 288 -256 19 -48 21 -70 18 -180
-3 -119 -5 -128 -37 -193 -44 -88 -101 -146 -182 -185 -120 -57 -234 -52 -373
19 -62 31 -98 59 -153 117 -81 84 -83 90 -59 197 48 216 103 334 188 405 64
55 126 78 233 89 6 0 40 -6 77 -13z"/>
<path d="M10745 6075 c-5 -1 -37 -9 -70 -16 -107 -23 -210 -82 -300 -173 -94
-96 -124 -143 -159 -251 -53 -169 -58 -282 -15 -432 19 -70 62 -170 78 -183 3
-3 13 -18 21 -34 8 -16 49 -60 90 -98 126 -116 284 -178 455 -178 193 0 380
85 505 229 185 213 217 546 78 801 -23 41 -46 80 -53 86 -6 7 -23 25 -36 40
-77 89 -211 167 -333 195 -69 16 -228 24 -261 14z m222 -271 c34 -9 73 -31
112 -64 100 -83 151 -199 151 -345 0 -184 -84 -327 -238 -402 -48 -24 -69 -27
-147 -28 -77 0 -98 4 -147 27 -164 76 -249 238 -235 447 6 98 25 153 75 226
56 81 128 129 225 150 67 15 122 12 204 -11z"/>
<path d="M12203 6051 c-57 -10 -171 -69 -207 -108 -16 -18 -33 -33 -38 -33 -4
0 -8 32 -8 70 l0 70 -140 0 -140 0 0 -650 0 -650 140 0 141 0 -1 328 c-1 338
5 407 40 503 50 133 161 199 338 199 l72 0 0 140 0 140 -77 -1 c-43 -1 -97 -5
-120 -8z"/>
<path d="M8265 6042 c6 -4 11 -18 11 -32 1 -14 23 -106 49 -205 75 -289 145
-564 166 -650 10 -44 30 -118 43 -165 14 -47 33 -120 42 -162 l18 -78 177 0
176 0 17 68 c10 37 29 108 43 157 14 50 38 140 53 200 15 61 33 122 39 137 6
15 20 67 31 115 24 99 69 253 75 253 10 0 56 -165 137 -480 11 -47 36 -134 54
-195 18 -60 36 -128 39 -150 4 -22 11 -55 17 -72 l10 -33 177 0 178 0 11 43
c6 23 16 67 23 97 7 30 21 80 31 110 10 30 26 87 34 125 8 39 25 104 38 145
14 41 34 116 45 165 12 50 30 117 41 150 11 33 33 112 49 175 17 63 41 154 54
203 l24 87 -153 0 -153 0 -10 -38 c-6 -21 -17 -69 -24 -107 -8 -39 -28 -124
-45 -190 -53 -207 -93 -376 -114 -475 -10 -52 -23 -99 -28 -104 -11 -11 -26
20 -35 74 -4 25 -18 81 -32 125 -13 44 -30 112 -39 150 -8 39 -29 126 -48 195
-18 69 -43 164 -54 211 -12 48 -27 100 -33 115 -7 16 -12 32 -11 37 1 4 -81 7
-182 7 l-184 0 -25 -97 c-15 -54 -35 -136 -47 -183 -11 -47 -39 -155 -61 -240
-22 -85 -53 -206 -69 -269 -29 -112 -45 -149 -53 -120 -3 8 -26 104 -51 214
-26 110 -62 263 -81 340 -18 77 -41 172 -50 210 -9 39 -20 87 -26 108 l-10 37
-147 0 c-81 0 -142 -4 -137 -8z"/>
</g>
</svg>
